<svg width="100" height="100" viewBox="0 0 100 100" fill="none" xmlns="http://www.w3.org/2000/svg">
<circle cx="50" cy="50" r="50" fill="#4C76CA"/>
<path d="M9.06814 42.2302C7.89446 42.0065 7.11824 40.8717 7.40816 39.7126C7.97215 37.4577 8.74106 35.2592 9.7053 33.1443C10.201 32.0572 11.5152 31.6535 12.5725 32.21C13.6298 32.7665 14.029 34.0723 13.5412 35.163C12.7669 36.8944 12.1397 38.688 11.6661 40.5246C11.3678 41.6816 10.2418 42.454 9.06814 42.2302Z" fill="white"/>
<path d="M15.3337 25.8437C14.2234 25.1624 13.8697 23.7052 14.6183 22.6391C17.0381 19.1931 20.0151 16.167 23.4318 13.6877C26.8486 11.2083 30.6488 9.31658 34.6753 8.08481C35.921 7.70374 37.1967 8.49197 37.5 9.75883C37.8034 11.0257 37.019 12.2905 35.7767 12.6824C32.3515 13.763 29.1177 15.3903 26.2024 17.5058C23.2872 19.6212 20.7372 22.1908 18.6476 25.1121C17.8897 26.1716 16.444 26.525 15.3337 25.8437Z" fill="white"/>
</svg>
