<svg width="1440" height="632" viewBox="0 0 1440 632" fill="none" xmlns="http://www.w3.org/2000/svg">
<path d="M145.761 2.27956C66.2548 -7.78823 0 18.7544 0 18.7544V624.5C0 624.5 431.697 587.937 708.927 587.5C994.794 587.049 1440 624.5 1440 624.5C1440 624.5 1439.5 225.307 1439.5 153C1384.29 135.61 1166.08 240.716 1067.81 159.707C1004.86 103.426 1024.9 49.8733 920 18.7544C815.097 -12.3644 769.66 79.1627 708.927 80.9929C648.193 82.8231 607.336 37.9748 536.664 40.721C465.992 43.4671 405.259 75.5009 314.71 75.5013C224.162 75.5016 225.266 12.3473 145.761 2.27956Z" fill="#F6B9C9"/>
<path d="M145.761 17.2779C66.2548 7.21752 0 33.7406 0 33.7406V631.5C0 631.5 431.6 590.469 708.927 590C994.498 589.517 1439 631.5 1439 631.5V168C1383.79 150.623 1166.08 255.539 1067.81 174.589C1004.86 118.349 1024.9 64.8365 920 33.7406C815.097 2.6447 769.66 94.1043 708.927 95.9331C648.193 97.7619 607.336 52.9468 536.664 55.6909C465.992 58.435 405.259 90.4452 314.71 90.4455C224.162 90.4459 225.266 27.3382 145.761 17.2779Z" fill="#CC427A"/>
</svg>
