<svg width="7" height="8" viewBox="0 0 7 8" fill="none" xmlns="http://www.w3.org/2000/svg">
<path d="M6.14408 0.745256C6.32468 0.914564 6.36167 1.12338 6.30524 1.35414C5.9359 2.8685 6.23939 4.31264 6.76174 5.73357C6.79999 5.83766 6.85768 5.93611 6.88904 6.04209C7.00881 6.44466 6.83009 6.68044 6.40996 6.63278C5.73084 6.55628 5.058 6.43087 4.36948 6.44905C3.44017 6.47351 2.54472 6.6378 1.69065 7.01592C1.19903 7.23351 0.930021 7.02909 1.00213 6.50047C1.21534 4.93281 1.01154 3.40653 0.469127 1.93606C0.248399 1.33846 0.563815 1.10645 1.10121 1.18232C2.57921 1.39176 4.0478 1.33282 5.47751 0.843705C5.53896 0.823012 5.62111 0.835554 5.64054 0.744629H6.14471L6.14408 0.745256Z" fill="#FFBC27"/>
</svg>
