<svg width="84" height="25" viewBox="0 0 84 25" fill="none" xmlns="http://www.w3.org/2000/svg">
<path d="M49.8117 24.2552C49.3107 24.0489 48.7639 24.0746 48.2459 23.9392C43.5391 22.7095 40.4038 19.8388 39.3566 15.0423C37.8711 8.23866 42.4311 2.15047 48.7432 1.07129C49.6581 0.915153 50.5742 0.892578 51.4985 0.892578C52.0535 0.892578 52.3488 1.18291 52.5708 1.61245C53.1489 2.73114 52.9602 4.45494 52.1456 5.40495C51.718 5.90409 51.1637 6.18063 50.4983 6.20132C47.5913 6.29225 44.9908 8.5616 44.5174 11.4235C43.9373 14.9288 46.0405 18.051 49.5226 18.8549C52.8737 19.6287 56.6323 17.0765 57.1082 13.6891C57.2092 12.9693 57.2217 12.2331 57.0675 11.5201C56.6737 9.70098 58.2733 8.31956 59.7099 8.22675C60.1251 8.19979 60.5421 8.20041 60.9622 8.28381C61.5203 8.3948 61.8319 8.68827 61.9806 9.24009C63.1087 13.4301 62.2753 17.148 59.3864 20.4125C57.4513 22.5991 55.0038 23.7479 52.1594 24.1624C51.965 24.1906 51.7449 24.0708 51.5756 24.2539H49.8117V24.2552Z" fill="white"/>
<path d="M84 17.0346C83.815 17.2297 83.8545 17.4955 83.7881 17.7269C83.0199 20.3901 81.2528 22.1647 78.7383 23.1648C75.5785 24.4215 72.4143 24.3556 69.4245 22.6506C66.7789 21.1419 65.3473 18.8362 65.3504 15.7241C65.3554 11.1923 65.3517 6.65982 65.3517 2.12801C65.3517 1.43133 65.6382 1.11655 66.3268 1.10463C67.1206 1.09084 67.9214 1.03628 68.6676 1.41315C69.9261 2.04837 70.6247 3.03663 70.6247 4.47323C70.6247 8.06821 70.6623 11.6638 70.6065 15.2575C70.582 16.8202 71.3226 17.8222 72.593 18.5208C74.5426 19.5918 76.8351 19.1127 78.1188 17.4102C78.5169 16.8823 78.7352 16.3097 78.7326 15.6313C78.7189 11.9805 78.7264 8.3297 78.7245 4.67891C78.7239 2.94695 79.6739 1.64454 81.2673 1.22503C81.9238 1.05259 82.5985 1.08143 83.2676 1.11968C83.6175 1.13975 83.8357 1.37991 83.9994 1.67025V17.0359L84 17.0346Z" fill="white"/>
<path d="M0 15.5234C1.15945 14.0749 2.3145 12.6232 3.47834 11.1791C5.8104 8.28581 8.1481 5.39566 10.4833 2.50488C10.7297 2.1995 11.0063 1.92484 11.2997 1.66398C11.6935 1.31471 12.1457 1.13662 12.6718 1.13787C13.6512 1.13976 14.6307 1.13411 15.6102 1.14038C16.2743 1.14477 16.5288 1.41441 16.5288 2.0929C16.5295 6.34504 16.5301 10.5965 16.5314 14.8487C16.5314 15.4526 16.6041 15.5228 17.2061 15.5234C18.3511 15.5247 18.4753 15.6482 18.4753 16.7932C18.4753 17.7163 18.4803 18.6393 18.474 19.5623C18.4696 20.1769 18.1818 20.4666 17.5704 20.4578C16.4549 20.4421 16.5226 20.4315 16.5301 21.5132C16.5301 21.5966 16.5295 21.6806 16.5288 21.7646C16.4618 21.8279 16.4674 21.9076 16.4793 21.9885C16.4737 22.043 16.4674 22.0982 16.4618 22.1528C16.3483 22.4055 16.2348 22.6575 16.1219 22.9103C16.0604 22.9918 15.999 23.0739 15.9375 23.1554C15.4409 23.6496 14.874 23.9963 14.146 23.9982C13.4644 24.0001 12.7821 23.9788 12.1018 24.0051C11.7017 24.0208 11.4007 23.8991 11.175 23.5762C11.0376 22.7566 11.1273 21.9308 11.1085 21.1081C11.0941 20.4979 11.0684 20.4578 10.4683 20.4578C7.30595 20.4572 4.14428 20.4509 0.981986 20.4647C0.547429 20.4666 0.221355 20.3499 0 19.9731C0 18.4894 0 17.0064 0 15.5228V15.5234ZM11.106 12.2464C11.106 11.3384 11.106 10.4304 11.106 9.52301C11.106 9.30354 11.1561 9.05835 10.8715 8.95928C10.5993 8.86522 10.5009 9.10037 10.3773 9.24898C8.84603 11.0969 7.32288 12.9506 5.79347 14.7998C5.67119 14.9478 5.56334 15.0932 5.64548 15.2876C5.73515 15.5002 5.92578 15.5259 6.13459 15.5253C7.61572 15.5209 9.09686 15.5159 10.578 15.5278C10.9831 15.5309 11.116 15.3541 11.1104 14.9697C11.0959 14.0623 11.106 13.1537 11.106 12.2464Z" fill="white"/>
<path d="M60.1441 0.745256C60.3247 0.914564 60.3617 1.12338 60.3052 1.35414C59.9359 2.8685 60.2394 4.31264 60.7617 5.73357C60.8 5.83766 60.8577 5.93611 60.889 6.04209C61.0088 6.44466 60.8301 6.68044 60.41 6.63278C59.7308 6.55628 59.058 6.43087 58.3695 6.44905C57.4402 6.47351 56.5447 6.6378 55.6907 7.01592C55.199 7.23351 54.93 7.02909 55.0021 6.50047C55.2153 4.93281 55.0115 3.40653 54.4691 1.93606C54.2484 1.33846 54.5638 1.10645 55.1012 1.18232C56.5792 1.39176 58.0478 1.33282 59.4775 0.843705C59.539 0.823012 59.6211 0.835554 59.6405 0.744629H60.1447L60.1441 0.745256Z" fill="#FFBC27"/>
<path d="M27.8782 23.6367C27.4161 23.6367 26.9539 23.6467 26.4924 23.6342C25.7939 23.6154 25.4321 23.0905 25.6565 22.4271C26.0265 21.3341 26.3915 20.2393 26.7828 19.1538C26.9188 18.777 26.9132 18.4402 26.7646 18.0696C25.3756 14.6082 23.9942 11.1437 22.6171 7.67787C21.8923 5.85311 21.1755 4.02521 20.4663 2.1948C20.0957 1.23789 20.4444 0.753799 21.4809 0.753172C22.293 0.753172 23.1056 0.771984 23.9164 0.748155C24.889 0.719937 25.5706 1.15763 26.0391 1.97846C26.6504 3.04949 27.0016 4.22963 27.4481 5.36901C28.0833 6.98935 28.6903 8.62161 29.3067 10.2495C29.4102 10.5235 29.5418 10.7831 29.878 10.7699C30.1815 10.7586 30.3138 10.5323 30.4179 10.2614C31.2983 7.97447 32.1147 5.66499 32.9211 3.35174C33.1606 2.6651 33.4591 2.00605 33.9526 1.4511C34.3715 0.98017 34.8995 0.765713 35.5115 0.756307C36.3932 0.743139 37.2755 0.738749 38.1571 0.75568C38.9322 0.770103 39.3072 1.32067 39.0407 2.02863C36.6396 8.39147 34.2367 14.7543 31.8325 21.1159C31.6212 21.6746 31.4394 22.2471 31.0662 22.7319C30.5985 23.3395 29.9827 23.6348 29.222 23.6386C28.7743 23.6411 28.326 23.6386 27.8782 23.6386V23.6361V23.6367Z" fill="white"/>
</svg>
