<svg width="36" height="36" viewBox="0 0 36 36" fill="none" xmlns="http://www.w3.org/2000/svg">
<rect width="36" height="36" rx="8" fill="white"/>
<path d="M17.7 6C11.2363 6 6 11.2371 6 17.7C6 24.1629 11.2371 29.4 17.7 29.4C24.1637 29.4 29.4 24.1629 29.4 17.7C29.4 11.2371 24.1629 6 17.7 6ZM23.4466 14.0156L21.5263 23.0646C21.3844 23.7063 21.0024 23.8617 20.4695 23.5598L17.5445 21.404L16.1337 22.7627C15.9782 22.9182 15.8461 23.0503 15.5442 23.0503L15.7518 20.0732L21.1723 15.1758C21.4085 14.9682 21.1202 14.8505 20.8084 15.0581L14.1092 19.2753L11.222 18.3741C10.5947 18.1763 10.5804 17.7468 11.3541 17.4449L22.6344 13.0947C23.1582 12.906 23.6157 13.2223 23.4458 14.0149L23.4466 14.0156Z" fill="#4C76CA"/>
</svg>
