<svg width="36" height="36" viewBox="0 0 36 36" fill="none" xmlns="http://www.w3.org/2000/svg">
<rect width="36" height="36" rx="8" fill="white"/>
<path d="M23.5389 19.067C23.498 19.0474 21.9671 18.2935 21.695 18.1956C21.584 18.1557 21.465 18.1168 21.3384 18.1168C21.1317 18.1168 20.9581 18.2198 20.8228 18.4221C20.6698 18.6495 20.2069 19.1906 20.0639 19.3523C20.0452 19.3736 20.0197 19.3991 20.0044 19.3991C19.9907 19.3991 19.7538 19.3016 19.682 19.2704C18.0397 18.557 16.7932 16.8415 16.6222 16.5522C16.5978 16.5106 16.5968 16.4917 16.5966 16.4917C16.6026 16.4697 16.6578 16.4143 16.6863 16.3858C16.7697 16.3033 16.8601 16.1945 16.9475 16.0893C16.9889 16.0395 17.0303 15.9896 17.071 15.9425C17.1978 15.795 17.2543 15.6804 17.3197 15.5477L17.354 15.4788C17.5138 15.1613 17.3773 14.8933 17.3332 14.8068C17.297 14.7344 16.6506 13.1743 16.5819 13.0103C16.4166 12.6148 16.1982 12.4307 15.8947 12.4307C15.8666 12.4307 15.8947 12.4307 15.7766 12.4356C15.6328 12.4417 14.8498 12.5448 14.5036 12.7631C14.1364 12.9945 13.5153 13.7324 13.5153 15.03C13.5153 16.1979 14.2564 17.3006 14.5746 17.72C14.5825 17.7306 14.597 17.7521 14.6181 17.7829C15.8367 19.5626 17.3559 20.8815 18.8959 21.4967C20.3785 22.0889 21.0806 22.1573 21.4797 22.1573H21.4798C21.6475 22.1573 21.7818 22.1442 21.9002 22.1325L21.9753 22.1254C22.4875 22.08 23.6131 21.4967 23.8691 20.7853C24.0708 20.2249 24.1239 19.6126 23.9898 19.3904C23.8979 19.2393 23.7395 19.1633 23.5389 19.067Z" fill="#4C76CA"/>
<path d="M18.6864 7C12.9989 7 8.37185 11.5923 8.37185 17.237C8.37185 19.0627 8.86044 20.8498 9.78601 22.4139L8.01444 27.6397C7.98144 27.7372 8.00598 27.8449 8.07805 27.9183C8.13008 27.9714 8.20064 28 8.27271 28C8.30033 28 8.32814 27.9958 8.35528 27.9872L13.8044 26.2556C15.2955 27.0523 16.9808 27.4729 18.6865 27.4729C24.3734 27.473 29 22.8811 29 17.237C29 11.5923 24.3734 7 18.6864 7ZM18.6864 25.3405C17.0815 25.3405 15.527 24.8771 14.1908 24.0003C14.1458 23.9707 14.0937 23.9556 14.0412 23.9556C14.0134 23.9556 13.9856 23.9598 13.9585 23.9684L11.2289 24.8361L12.1101 22.2364C12.1386 22.1523 12.1243 22.0595 12.0718 21.9877C11.0543 20.5974 10.5164 18.9547 10.5164 17.237C10.5164 12.7682 14.1814 9.13245 18.6863 9.13245C23.1907 9.13245 26.8553 12.7682 26.8553 17.237C26.8554 21.7053 23.1908 25.3405 18.6864 25.3405Z" fill="#4C76CA"/>
</svg>
