<svg width="148" height="148" viewBox="0 0 148 148" fill="none" xmlns="http://www.w3.org/2000/svg">
<circle cx="74" cy="74" r="74" fill="#FFBC27"/>
<path d="M22.225 43.6241C20.5744 42.8306 19.8706 40.8434 20.7646 39.245C23.6542 34.0784 27.3834 29.4191 31.806 25.4612C36.2287 21.5034 41.2719 18.3124 46.7264 16.0119C48.4139 15.3002 50.3111 16.2195 50.9171 17.9477C51.5232 19.6759 50.6077 21.5574 48.9265 22.2838C44.2913 24.2866 40.0023 27.0265 36.2287 30.4034C32.4552 33.7803 29.2578 37.74 26.7546 42.1253C25.8468 43.7158 23.8756 44.4176 22.225 43.6241Z" fill="white"/>
<path d="M16.9835 65.4203C15.3037 65.4203 13.933 64.0575 14.0283 62.3804C14.2135 59.118 14.6966 55.8793 15.4714 52.7049C15.8697 51.073 17.5785 50.1695 19.1851 50.6597C20.7918 51.1499 21.6868 52.8481 21.3003 54.4828C20.6868 57.0778 20.2928 59.7198 20.1223 62.3809C20.0149 64.0572 18.6633 65.4203 16.9835 65.4203Z" fill="white"/>
</svg>
